<?xml version="1.0" encoding="UTF-8"?>
<svg version="1.1" xmlns="http://www.w3.org/2000/svg" width="266" height="266">
<path d="M0 0 C25.08 0 50.16 0 76 0 C76 6.27 76 12.54 76 19 C88.54 19 101.08 19 114 19 C114 25.27 114 31.54 114 38 C120.27 38 126.54 38 133 38 C133 44.27 133 50.54 133 57 C139.27 57 145.54 57 152 57 C152 69.54 152 82.08 152 95 C158.27 95 164.54 95 171 95 C171 120.08 171 145.16 171 171 C164.73 171 158.46 171 152 171 C152 183.54 152 196.08 152 209 C145.73 209 139.46 209 133 209 C133 215.27 133 221.54 133 228 C126.73 228 120.46 228 114 228 C114 234.27 114 240.54 114 247 C101.46 247 88.92 247 76 247 C76 253.27 76 259.54 76 266 C50.92 266 25.84 266 0 266 C0 259.73 0 253.46 0 247 C-12.54 247 -25.08 247 -38 247 C-38 240.73 -38 234.46 -38 228 C-19.19 228 -0.38 228 19 228 C19 221.73 19 215.46 19 209 C0.19 209 -18.62 209 -38 209 C-38 202.73 -38 196.46 -38 190 C-44.27 190 -50.54 190 -57 190 C-57 196.27 -57 202.54 -57 209 C-63.27 209 -69.54 209 -76 209 C-76 196.46 -76 183.92 -76 171 C-82.27 171 -88.54 171 -95 171 C-95 145.92 -95 120.84 -95 95 C-88.73 95 -82.46 95 -76 95 C-76 82.46 -76 69.92 -76 57 C-69.73 57 -63.46 57 -57 57 C-57 50.73 -57 44.46 -57 38 C-50.73 38 -44.46 38 -38 38 C-38 31.73 -38 25.46 -38 19 C-25.46 19 -12.92 19 0 19 C0 12.73 0 6.46 0 0 Z " fill="#F44336" transform="translate(95,0)"/>
<path d="M0 0 C6.27 0 12.54 0 19 0 C19 25.08 19 50.16 19 76 C12.73 76 6.46 76 0 76 C0 82.27 0 88.54 0 95 C-6.27 95 -12.54 95 -19 95 C-19 101.27 -19 107.54 -19 114 C-31.54 114 -44.08 114 -57 114 C-57 120.27 -57 126.54 -57 133 C-82.08 133 -107.16 133 -133 133 C-133 126.73 -133 120.46 -133 114 C-145.54 114 -158.08 114 -171 114 C-171 107.73 -171 101.46 -171 95 C-152.19 95 -133.38 95 -114 95 C-114 88.73 -114 82.46 -114 76 C-132.81 76 -151.62 76 -171 76 C-171 69.73 -171 63.46 -171 57 C-177.27 57 -183.54 57 -190 57 C-190 50.73 -190 44.46 -190 38 C-177.46 38 -164.92 38 -152 38 C-152 44.27 -152 50.54 -152 57 C-120.65 57 -89.3 57 -57 57 C-57 50.73 -57 44.46 -57 38 C-44.46 38 -31.92 38 -19 38 C-19 31.73 -19 25.46 -19 19 C-12.73 19 -6.46 19 0 19 C0 12.73 0 6.46 0 0 Z " fill="#9E9E9E" transform="translate(228,133)"/>
<path d="M0 0 C6.27 0 12.54 0 19 0 C19 12.54 19 25.08 19 38 C25.27 38 31.54 38 38 38 C38 63.08 38 88.16 38 114 C31.73 114 25.46 114 19 114 C19 101.46 19 88.92 19 76 C12.73 76 6.46 76 0 76 C0 82.27 0 88.54 0 95 C-6.27 95 -12.54 95 -19 95 C-19 101.27 -19 107.54 -19 114 C-31.54 114 -44.08 114 -57 114 C-57 101.46 -57 88.92 -57 76 C-50.73 76 -44.46 76 -38 76 C-38 69.73 -38 63.46 -38 57 C-25.46 57 -12.92 57 0 57 C0 38.19 0 19.38 0 0 Z " fill="#D50000" transform="translate(228,57)"/>
<path d="M0 0 C12.54 0 25.08 0 38 0 C38 6.27 38 12.54 38 19 C69.35 19 100.7 19 133 19 C133 25.27 133 31.54 133 38 C95.38 38 57.76 38 19 38 C19 31.73 19 25.46 19 19 C12.73 19 6.46 19 0 19 C0 12.73 0 6.46 0 0 Z " fill="#607D8B" transform="translate(38,171)"/>
<path d="M0 0 C6.27 0 12.54 0 19 0 C19 12.54 19 25.08 19 38 C25.27 38 31.54 38 38 38 C38 31.73 38 25.46 38 19 C44.27 19 50.54 19 57 19 C57 31.54 57 44.08 57 57 C44.46 57 31.92 57 19 57 C19 63.27 19 69.54 19 76 C12.73 76 6.46 76 0 76 C0 50.92 0 25.84 0 0 Z " fill="#000000" transform="translate(0,95)"/>
<path d="M0 0 C12.54 0 25.08 0 38 0 C38 6.27 38 12.54 38 19 C31.73 19 25.46 19 19 19 C19 31.54 19 44.08 19 57 C6.46 57 -6.08 57 -19 57 C-19 44.46 -19 31.92 -19 19 C-12.73 19 -6.46 19 0 19 C0 12.73 0 6.46 0 0 Z " fill="#9E9E9E" transform="translate(152,114)"/>
<path d="M0 0 C6.27 0 12.54 0 19 0 C19 6.27 19 12.54 19 19 C25.27 19 31.54 19 38 19 C38 31.54 38 44.08 38 57 C31.73 57 25.46 57 19 57 C19 63.27 19 69.54 19 76 C12.73 76 6.46 76 0 76 C0 50.92 0 25.84 0 0 Z " fill="#D50000" transform="translate(19,57)"/>
<path d="M0 0 C6.27 0 12.54 0 19 0 C19 25.08 19 50.16 19 76 C12.73 76 6.46 76 0 76 C0 63.46 0 50.92 0 38 C-6.27 38 -12.54 38 -19 38 C-19 31.73 -19 25.46 -19 19 C-12.73 19 -6.46 19 0 19 C0 12.73 0 6.46 0 0 Z " fill="#9E9E9E" transform="translate(228,133)"/>
<path d="M0 0 C25.08 0 50.16 0 76 0 C76 6.27 76 12.54 76 19 C50.92 19 25.84 19 0 19 C0 12.73 0 6.46 0 0 Z " fill="#000000" transform="translate(95,247)"/>
<path d="M0 0 C6.27 0 12.54 0 19 0 C19 25.08 19 50.16 19 76 C12.73 76 6.46 76 0 76 C0 50.92 0 25.84 0 0 Z " fill="#000000" transform="translate(247,95)"/>
<path d="M0 0 C25.08 0 50.16 0 76 0 C76 6.27 76 12.54 76 19 C50.92 19 25.84 19 0 19 C0 12.73 0 6.46 0 0 Z " fill="#000000" transform="translate(95,0)"/>
<path d="M0 0 C12.54 0 25.08 0 38 0 C38 12.54 38 25.08 38 38 C31.73 38 25.46 38 19 38 C19 31.73 19 25.46 19 19 C12.73 19 6.46 19 0 19 C0 12.73 0 6.46 0 0 Z " fill="#607D8B" transform="translate(38,171)"/>
<path d="M0 0 C6.27 0 12.54 0 19 0 C19 18.81 19 37.62 19 57 C12.73 57 6.46 57 0 57 C0 38.19 0 19.38 0 0 Z " fill="#607D8B" transform="translate(95,114)"/>
<path d="M0 0 C12.54 0 25.08 0 38 0 C38 6.27 38 12.54 38 19 C25.46 19 12.92 19 0 19 C0 12.73 0 6.46 0 0 Z " fill="#000000" transform="translate(171,228)"/>
<path d="M0 0 C12.54 0 25.08 0 38 0 C38 6.27 38 12.54 38 19 C25.46 19 12.92 19 0 19 C0 12.73 0 6.46 0 0 Z " fill="#000000" transform="translate(57,228)"/>
<path d="M0 0 C6.27 0 12.54 0 19 0 C19 12.54 19 25.08 19 38 C12.73 38 6.46 38 0 38 C0 25.46 0 12.92 0 0 Z " fill="#000000" transform="translate(228,171)"/>
<path d="M0 0 C12.54 0 25.08 0 38 0 C38 6.27 38 12.54 38 19 C25.46 19 12.92 19 0 19 C0 12.73 0 6.46 0 0 Z " fill="#607D8B" transform="translate(171,171)"/>
<path d="M0 0 C12.54 0 25.08 0 38 0 C38 6.27 38 12.54 38 19 C25.46 19 12.92 19 0 19 C0 12.73 0 6.46 0 0 Z " fill="#D50000" transform="translate(133,171)"/>
<path d="M0 0 C6.27 0 12.54 0 19 0 C19 12.54 19 25.08 19 38 C12.73 38 6.46 38 0 38 C0 25.46 0 12.92 0 0 Z " fill="#000000" transform="translate(19,171)"/>
<path d="M0 0 C12.54 0 25.08 0 38 0 C38 6.27 38 12.54 38 19 C25.46 19 12.92 19 0 19 C0 12.73 0 6.46 0 0 Z " fill="#FFFFFF" transform="translate(133,152)"/>
<path d="M0 0 C6.27 0 12.54 0 19 0 C19 12.54 19 25.08 19 38 C12.73 38 6.46 38 0 38 C0 25.46 0 12.92 0 0 Z " fill="#000000" transform="translate(114,133)"/>
<path d="M0 0 C12.54 0 25.08 0 38 0 C38 6.27 38 12.54 38 19 C25.46 19 12.92 19 0 19 C0 12.73 0 6.46 0 0 Z " fill="#607D8B" transform="translate(152,114)"/>
<path d="M0 0 C6.27 0 12.54 0 19 0 C19 12.54 19 25.08 19 38 C12.73 38 6.46 38 0 38 C0 25.46 0 12.92 0 0 Z " fill="#000000" transform="translate(38,114)"/>
<path d="M0 0 C6.27 0 12.54 0 19 0 C19 12.54 19 25.08 19 38 C12.73 38 6.46 38 0 38 C0 25.46 0 12.92 0 0 Z " fill="#FFFFFF" transform="translate(19,95)"/>
<path d="M0 0 C6.27 0 12.54 0 19 0 C19 12.54 19 25.08 19 38 C12.73 38 6.46 38 0 38 C0 25.46 0 12.92 0 0 Z " fill="#000000" transform="translate(228,57)"/>
<path d="M0 0 C6.27 0 12.54 0 19 0 C19 12.54 19 25.08 19 38 C12.73 38 6.46 38 0 38 C0 25.46 0 12.92 0 0 Z " fill="#000000" transform="translate(19,57)"/>
<path d="M0 0 C12.54 0 25.08 0 38 0 C38 6.27 38 12.54 38 19 C25.46 19 12.92 19 0 19 C0 12.73 0 6.46 0 0 Z " fill="#000000" transform="translate(171,19)"/>
<path d="M0 0 C12.54 0 25.08 0 38 0 C38 6.27 38 12.54 38 19 C25.46 19 12.92 19 0 19 C0 12.73 0 6.46 0 0 Z " fill="#000000" transform="translate(57,19)"/>
<path d="M0 0 C6.27 0 12.54 0 19 0 C19 6.27 19 12.54 19 19 C12.73 19 6.46 19 0 19 C0 12.73 0 6.46 0 0 Z " fill="#000000" transform="translate(209,209)"/>
<path d="M0 0 C6.27 0 12.54 0 19 0 C19 6.27 19 12.54 19 19 C12.73 19 6.46 19 0 19 C0 12.73 0 6.46 0 0 Z " fill="#000000" transform="translate(38,209)"/>
<path d="M0 0 C6.27 0 12.54 0 19 0 C19 6.27 19 12.54 19 19 C12.73 19 6.46 19 0 19 C0 12.73 0 6.46 0 0 Z " fill="#9E9E9E" transform="translate(57,190)"/>
<path d="M0 0 C6.27 0 12.54 0 19 0 C19 6.27 19 12.54 19 19 C12.73 19 6.46 19 0 19 C0 12.73 0 6.46 0 0 Z " fill="#607D8B" transform="translate(209,152)"/>
<path d="M0 0 C6.27 0 12.54 0 19 0 C19 6.27 19 12.54 19 19 C12.73 19 6.46 19 0 19 C0 12.73 0 6.46 0 0 Z " fill="#FFFFFF" transform="translate(95,152)"/>
<path d="M0 0 C6.27 0 12.54 0 19 0 C19 6.27 19 12.54 19 19 C12.73 19 6.46 19 0 19 C0 12.73 0 6.46 0 0 Z " fill="#607D8B" transform="translate(19,152)"/>
<path d="M0 0 C6.27 0 12.54 0 19 0 C19 6.27 19 12.54 19 19 C12.73 19 6.46 19 0 19 C0 12.73 0 6.46 0 0 Z " fill="#607D8B" transform="translate(228,133)"/>
<path d="M0 0 C6.27 0 12.54 0 19 0 C19 6.27 19 12.54 19 19 C12.73 19 6.46 19 0 19 C0 12.73 0 6.46 0 0 Z " fill="#607D8B" transform="translate(133,133)"/>
<path d="M0 0 C6.27 0 12.54 0 19 0 C19 6.27 19 12.54 19 19 C12.73 19 6.46 19 0 19 C0 12.73 0 6.46 0 0 Z " fill="#D50000" transform="translate(19,133)"/>
<path d="M0 0 C6.27 0 12.54 0 19 0 C19 6.27 19 12.54 19 19 C12.73 19 6.46 19 0 19 C0 12.73 0 6.46 0 0 Z " fill="#D50000" transform="translate(114,95)"/>
<path d="M0 0 C6.27 0 12.54 0 19 0 C19 6.27 19 12.54 19 19 C12.73 19 6.46 19 0 19 C0 12.73 0 6.46 0 0 Z " fill="#9E9E9E" transform="translate(19,95)"/>
<path d="M0 0 C6.27 0 12.54 0 19 0 C19 6.27 19 12.54 19 19 C12.73 19 6.46 19 0 19 C0 12.73 0 6.46 0 0 Z " fill="#000000" transform="translate(209,38)"/>
<path d="M0 0 C6.27 0 12.54 0 19 0 C19 6.27 19 12.54 19 19 C12.73 19 6.46 19 0 19 C0 12.73 0 6.46 0 0 Z " fill="#000000" transform="translate(38,38)"/>
</svg>
